<svg width="45" height="45" viewBox="0 0 45 45" fill="none" xmlns="http://www.w3.org/2000/svg">
<g clip-path="url(#clip0)">
<path d="M28.4364 29.0403C35.3159 29.0403 40.9131 23.4435 40.9131 16.5636C40.9131 9.6841 35.3159 4.08691 28.4364 4.08691C21.5569 4.08691 15.9597 9.6841 15.9597 16.5636C15.9597 23.4435 21.5569 29.0403 28.4364 29.0403ZM28.4364 5.84473C34.3467 5.84473 39.1553 10.6533 39.1553 16.5636C39.1553 22.4739 34.3467 27.2825 28.4364 27.2825C22.5261 27.2825 17.7175 22.4743 17.7175 16.5636C17.7175 10.6533 22.5261 5.84473 28.4364 5.84473Z" fill="black"/>
<path d="M28.3059 33.3881C37.5111 33.3881 45 25.8992 45 16.6941C45 7.4889 37.5111 0 28.3059 0C19.1008 0 11.6119 7.4889 11.6119 16.6941C11.6119 20.1877 12.6913 23.4332 14.5332 26.1169L11.8024 28.8477L11.4306 28.4759C11.0873 28.1326 10.5307 28.1326 10.1874 28.4759L1.31252 37.3508C0.466232 38.1971 0 39.3225 0 40.5193C0 41.7161 0.466232 42.8412 1.31252 43.6875C2.15881 44.5338 3.28388 45 4.48071 45C5.67753 45 6.80294 44.5338 7.64923 43.6875L16.5245 34.8126C16.6893 34.6478 16.7816 34.4243 16.7816 34.1912C16.7816 33.9581 16.6893 33.7342 16.5245 33.5694L16.1523 33.1976L18.8831 30.4668C21.5668 32.3087 24.8126 33.3881 28.3059 33.3881ZM28.3059 1.75781C36.5419 1.75781 43.2422 8.4581 43.2422 16.6941C43.2422 24.93 36.5419 31.6303 28.3059 31.6303C20.0703 31.6303 13.3697 24.93 13.3697 16.6941C13.3697 8.4581 20.0703 1.75781 28.3059 1.75781ZM6.4064 42.4446C5.89176 42.9589 5.20821 43.2422 4.48071 43.2422C3.7532 43.2422 3.06965 42.9589 2.55535 42.4446C1.49345 41.3831 1.49345 39.6555 2.55535 38.5936L10.8088 30.3401L11.1806 30.7116C11.1806 30.7119 11.181 30.7119 11.181 30.7123L14.6599 34.1912L6.4064 42.4446ZM14.9095 31.9544L13.0456 30.0905L15.6123 27.5238C16.1839 28.1926 16.8074 28.8161 17.4762 29.3877L14.9095 31.9544Z" fill="black"/>
<path d="M25.4275 14.2534C25.913 14.2534 26.3064 13.86 26.3064 13.3745C26.3064 12.7696 26.5653 12.1911 27.016 11.7873C27.4734 11.3777 28.0649 11.1899 28.6825 11.2583C29.6583 11.3661 30.4448 12.1526 30.5526 13.1283C30.6474 13.9887 30.2241 14.8158 29.4736 15.2353C28.2918 15.8962 27.5575 17.1184 27.5575 18.4248V19.6789C27.5575 20.1644 27.9509 20.5578 28.4364 20.5578C28.9215 20.5578 29.3153 20.1644 29.3153 19.6789V18.4248C29.3153 17.7543 29.7046 17.1202 30.3315 16.7696C31.7 16.0044 32.4725 14.4992 32.2998 12.9354C32.1024 11.1484 30.6621 9.7085 28.8755 9.51109C27.7714 9.38921 26.6655 9.74146 25.8433 10.4779C25.0207 11.2147 24.5486 12.2704 24.5486 13.3745C24.5486 13.86 24.942 14.2534 25.4275 14.2534Z" fill="black"/>
<path d="M28.436 22.2267C28.205 22.2267 27.9784 22.3208 27.815 22.4842C27.6515 22.6476 27.5571 22.8746 27.5571 23.1056C27.5571 23.3377 27.6512 23.5636 27.815 23.727C27.9784 23.8911 28.205 23.9845 28.436 23.9845C28.6674 23.9845 28.894 23.8911 29.0574 23.727C29.2209 23.5636 29.3149 23.3367 29.3149 23.1056C29.3149 22.8746 29.2212 22.6476 29.0574 22.4842C28.894 22.3208 28.6674 22.2267 28.436 22.2267Z" fill="black"/>
</g>
<defs>
<clipPath id="clip0">
<rect width="45" height="45" fill="white"/>
</clipPath>
</defs>
</svg>
