<svg width="50" height="50" viewBox="0 0 50 50" fill="none" xmlns="http://www.w3.org/2000/svg">
<g clip-path="url(#clip0)">
<path d="M16.4589 36.7493C13.1698 36.7493 10.5037 39.4154 10.5037 42.7046C10.5037 45.9933 13.1698 48.6594 16.4589 48.6594C19.7476 48.6594 22.4138 45.9933 22.4138 42.7046C22.4103 39.4172 19.7464 36.7527 16.4589 36.7493ZM16.4589 46.4701C14.379 46.4701 12.693 44.784 12.693 42.7046C12.693 40.6247 14.379 38.9387 16.4589 38.9387C18.5384 38.9387 20.2244 40.6247 20.2244 42.7046C20.2244 44.784 18.5384 46.4701 16.4589 46.4701Z" fill="black"/>
<path d="M48.916 11.7583H10.2631L9.47498 7.34673C8.98922 4.63101 6.8606 2.50667 4.14402 2.02647L1.28677 1.52318C0.691112 1.41713 0.122824 1.81438 0.0167781 2.4096C-0.0888404 3.00526 0.307977 3.57354 0.903631 3.67959L3.77158 4.18288C5.5812 4.50358 6.99786 5.92024 7.31856 7.72987L11.1935 29.5903C11.6511 32.206 13.9238 34.114 16.5792 34.1114H39.5673C41.9824 34.1187 44.1153 32.5378 44.811 30.2253L49.9559 13.1703C50.0513 12.8376 49.991 12.4793 49.7917 12.1962C49.5835 11.9221 49.2598 11.7605 48.916 11.7583ZM42.72 29.5792C42.3069 30.9681 41.0271 31.9182 39.5784 31.9109H16.5903C14.9958 31.9152 13.6309 30.768 13.3611 29.1961L10.6573 13.9366H47.4489L42.72 29.5792Z" fill="black"/>
<path d="M39.447 36.7493C36.1578 36.7493 33.4917 39.4154 33.4917 42.7046C33.4917 45.9933 36.1578 48.6594 39.447 48.6594C42.7357 48.6594 45.4018 45.9933 45.4018 42.7046C45.3984 39.4172 42.7344 36.7527 39.447 36.7493ZM39.447 46.4701C37.3671 46.4701 35.681 44.784 35.681 42.7046C35.681 40.6247 37.3671 38.9387 39.447 38.9387C41.5264 38.9387 43.2125 40.6247 43.2125 42.7046C43.2125 44.784 41.5264 46.4701 39.447 46.4701Z" fill="black"/>
</g>
<defs>
<clipPath id="clip0">
<rect width="50" height="50" fill="white"/>
</clipPath>
</defs>
</svg>
