<svg width="120" height="120" viewBox="0 0 120 120" fill="none" xmlns="http://www.w3.org/2000/svg">
<g clip-path="url(#clip0)">
<path d="M105.088 0C98.2352 0 92.2717 4.74988 90.6273 11.2723H56.9411C54.4636 11.2723 52.1339 12.2373 50.3818 13.9892L2.16372 62.2075C-0.720588 65.0918 -0.720588 69.7849 2.16372 72.6692L47.3312 117.837C48.7734 119.279 50.6678 120 52.5621 120C54.4563 120 56.3507 119.279 57.7929 117.837L106.011 69.6184C107.763 67.8662 108.728 65.5368 108.728 63.059V32.4972C110.177 31.7523 111.547 30.8866 112.798 29.89C117.51 26.1356 120 20.9562 120 14.9123C120 6.68966 113.311 0 105.088 0ZM105.205 63.0593C105.205 64.5961 104.607 66.0408 103.52 67.1276L55.3019 115.346C53.791 116.857 51.3329 116.857 49.8219 115.346L4.65443 70.1784C3.14371 68.6675 3.14371 66.2094 4.65443 64.6984L52.8728 16.4801C53.9596 15.3933 55.4043 14.7949 56.9411 14.7949H101.331C103.467 14.7949 105.205 16.5332 105.205 18.6698V30.2413C102.133 31.5066 98.7485 32.2353 95.4965 32.4967C94.9044 27.9486 91.0077 24.4234 86.3008 24.4234C81.186 24.4234 77.0247 28.5847 77.0247 33.6996C77.0247 38.8144 81.186 42.9757 86.3008 42.9757C90.6022 42.9757 94.2281 40.0327 95.2731 36.0548C98.5687 35.8361 101.994 35.1807 105.205 34.0239V63.0593ZM85.9072 35.4165C87.6117 35.807 89.5137 36.0433 91.5213 36.1139C90.6069 38.0836 88.6112 39.4534 86.3006 39.4534C83.1282 39.4534 80.547 36.8722 80.547 33.6998C80.547 30.5273 83.1282 27.9462 86.3006 27.9462C89.0961 27.9462 91.4312 29.9506 91.9471 32.5972C90.0494 32.5514 88.2629 32.3424 86.6942 31.9829C85.7464 31.7652 84.8011 32.3579 84.5839 33.3062C84.3667 34.2542 84.9592 35.199 85.9072 35.4165ZM110.602 27.1351C110.01 27.6071 109.382 28.0451 108.728 28.4521V18.6698C108.728 14.5909 105.41 11.2723 101.331 11.2723H94.2939C95.8302 6.73827 100.159 3.5226 105.088 3.5226C111.368 3.5226 116.478 8.63202 116.478 14.9123C116.478 19.9163 114.501 24.0286 110.602 27.1351Z" fill="black"/>
</g>
<defs>
<clipPath id="clip0">
<rect width="120" height="120" fill="white"/>
</clipPath>
</defs>
</svg>
