<svg width="50" height="50" viewBox="0 0 50 50" fill="none" xmlns="http://www.w3.org/2000/svg">
<g clip-path="url(#clip0)">
<path d="M25.1073 4.99928C24.6471 4.99928 24.274 5.37242 24.274 5.83263V8.56583L19.8948 10.025L11.6069 11.6828C11.5064 11.7027 11.41 11.7409 11.3229 11.7959L2.15606 17.6293C1.76746 17.8763 1.65312 18.3919 1.90011 18.7805L7.73355 27.9473C7.8662 28.1544 8.08309 28.2924 8.32682 28.3245C8.57097 28.3566 8.81633 28.2797 8.99782 28.1137L10.9404 26.353V49.1668C10.9404 49.627 11.3135 50.0001 11.7737 50.0001H38.4409C38.9011 50.0001 39.2742 49.627 39.2742 49.1668V26.5313L41.2469 28.1446C41.4256 28.2932 41.6587 28.3587 41.8886 28.3245C42.1181 28.2936 42.3244 28.1674 42.4567 27.977L48.2901 19.6435C48.5509 19.2716 48.4651 18.7593 48.0976 18.492L38.9308 11.8252C38.8336 11.7544 38.7221 11.7059 38.6045 11.6828L30.3198 10.025L25.9407 8.56583V6.54757C27.6139 6.11136 28.6743 4.46704 28.3809 2.76291C28.0875 1.05919 26.5384 -0.136312 24.816 0.01221C23.0931 0.160732 21.7715 1.60363 21.7739 3.33258C21.7739 3.7928 22.1471 4.16593 22.6073 4.16593C23.0675 4.16593 23.4406 3.7928 23.4406 3.33258C23.4406 2.41216 24.1869 1.66589 25.1073 1.66589C26.0277 1.66589 26.774 2.41216 26.774 3.33258C26.774 4.25301 26.0277 4.99928 25.1073 4.99928ZM25.1073 10.0441L29.2159 11.4158C28.9347 13.4695 27.1801 15.0003 25.1073 15.0003C23.0345 15.0003 21.2803 13.4695 20.9988 11.4158L25.1073 10.0441ZM46.4562 19.3587L41.6075 26.2863L38.9695 24.1272C38.72 23.9226 38.375 23.8802 38.0836 24.0186C37.7927 24.1565 37.6071 24.4503 37.6075 24.773V48.3334H12.6071V24.4686C12.6071 24.1386 12.4126 23.84 12.1111 23.7065C11.8091 23.573 11.4572 23.63 11.213 23.8522L8.61207 26.2171L3.75684 18.5888L12.0903 13.286L19.3573 11.8325C19.8423 14.628 22.2679 16.669 25.1049 16.669C27.9418 16.669 30.3674 14.628 30.8525 11.8325L38.0958 13.2819L46.4562 19.3587Z" fill="black"/>
</g>
<defs>
<clipPath id="clip0">
<rect width="50" height="50" fill="white"/>
</clipPath>
</defs>
</svg>
